HIERARCHY
ROOT Hips
{
	OFFSET 0.000000 0.000000 0.000000
	CHANNELS 6 Xposition Yposition Zposition Xrotation Yrotation Zrotation
	JOINT LeftUpLeg_virtual
	{
		OFFSET 0.000000 0.000000 0.000000
		CHANNELS 3 Xrotation Yrotation Zrotation
		JOINT LeftUpLeg
		{
			OFFSET 11.394100 -6.187798 -0.413800
			CHANNELS 3 Xrotation Yrotation Zrotation
			JOINT LeftLeg
			{
				OFFSET 0.430247 -32.302673 3.732800
				CHANNELS 3 Xrotation Yrotation Zrotation
				JOINT LeftFoot
				{
					OFFSET -0.430247 -48.264931 -6.423300
					CHANNELS 3 Xrotation Yrotation Zrotation
					JOINT LeftToeBase
					{
						OFFSET 4.230900 -16.068199 23.438400
						CHANNELS 3 Xrotation Yrotation Zrotation
						JOINT LeftToe_End
						{
							OFFSET 4.510700 0.695400 19.974600
							CHANNELS 3 Xrotation Yrotation Zrotation
							End Site
							{
								OFFSET 0 0 0
							}
						}
					}
				}
			}
		}
	}
	JOINT RightUpLeg_virtual
	{
		OFFSET 0.000000 0.000000 0.000000
		CHANNELS 3 Xrotation Yrotation Zrotation
		JOINT RightUpLeg
		{
			OFFSET -11.333700 -6.187798 -0.413800
			CHANNELS 3 Xrotation Yrotation Zrotation
			JOINT RightLeg
			{
				OFFSET -0.430392 -32.302628 3.733000
				CHANNELS 3 Xrotation Yrotation Zrotation
				JOINT RightFoot
				{
					OFFSET 0.430392 -48.264973 -6.423500
					CHANNELS 3 Xrotation Yrotation Zrotation
					JOINT RightToeBase
					{
						OFFSET -4.230900 -16.068199 23.438400
						CHANNELS 3 Xrotation Yrotation Zrotation
						JOINT RightToe_End
						{
							OFFSET -4.510700 0.695400 19.974600
							CHANNELS 3 Xrotation Yrotation Zrotation
							End Site
							{
								OFFSET 0 0 0
							}
						}
					}
				}
			}
		}
	}
	JOINT Spine_virtual
	{
		OFFSET 0.000000 0.000000 0.000000
		CHANNELS 3 Xrotation Yrotation Zrotation
		JOINT Spine
		{
			OFFSET -0.002400 12.777504 0.315300
			CHANNELS 3 Xrotation Yrotation Zrotation
			JOINT Spine1
			{
				OFFSET -0.002067 5.816869 0.032633
				CHANNELS 3 Xrotation Yrotation Zrotation
				JOINT Spine1_split
				{
					OFFSET -0.002067 5.816869 0.032633
					CHANNELS 3 Xrotation Yrotation Zrotation
					JOINT Spine2
					{
						OFFSET -0.002067 5.816869 0.032633
						CHANNELS 3 Xrotation Yrotation Zrotation
						JOINT Neck_virtual
						{
							OFFSET 0.000000 0.000000 0.000000
							CHANNELS 3 Xrotation Yrotation Zrotation
							JOINT Neck
							{
								OFFSET -0.003700 21.199493 -0.826900
								CHANNELS 3 Xrotation Yrotation Zrotation
								JOINT Head
								{
									OFFSET 0.000000 20.442200 4.834800
									CHANNELS 3 Xrotation Yrotation Zrotation
									JOINT HeadTop_End
									{
										OFFSET 0.000000 34.668396 4.968400
										CHANNELS 3 Xrotation Yrotation Zrotation
										End Site
										{
											OFFSET 0 0 0
										}
									}
								}
							}
						}
						JOINT LeftShoulder_virtual
						{
							OFFSET 0.000000 0.000000 0.000000
							CHANNELS 3 Xrotation Yrotation Zrotation
							JOINT LeftShoulder
							{
								OFFSET 3.288150 8.794197 -1.372250
								CHANNELS 3 Xrotation Yrotation Zrotation
								JOINT LeftShoulder_split
								{
									OFFSET 3.288150 8.794197 -1.372250
									CHANNELS 3 Xrotation Yrotation Zrotation
									JOINT LeftArm
									{
										OFFSET 11.953299 -2.279007 -0.146200
										CHANNELS 3 Xrotation Yrotation Zrotation
										JOINT LeftForeArm
										{
											OFFSET 18.448900 0.000000 0.000000
											CHANNELS 3 Xrotation Yrotation Zrotation
											JOINT LeftHand
											{
												OFFSET 29.527798 0.000000 0.000000
												CHANNELS 3 Xrotation Yrotation Zrotation
												End Site
												{
													OFFSET 0 0 0
												}
											}
										}
									}
								}
							}
						}
						JOINT RightShoulder_virtual
						{
							OFFSET 0.000000 0.000000 0.000000
							CHANNELS 3 Xrotation Yrotation Zrotation
							JOINT RightShoulder
							{
								OFFSET -3.249400 8.794197 -1.372250
								CHANNELS 3 Xrotation Yrotation Zrotation
								JOINT RightShoulder_split
								{
									OFFSET -3.249400 8.794197 -1.372250
									CHANNELS 3 Xrotation Yrotation Zrotation
									JOINT RightArm
									{
										OFFSET -11.953299 -2.279007 -0.146200
										CHANNELS 3 Xrotation Yrotation Zrotation
										JOINT RightForeArm
										{
											OFFSET -18.448900 0.000000 0.000000
											CHANNELS 3 Xrotation Yrotation Zrotation
											JOINT RightHand
											{
												OFFSET -29.527802 0.000000 0.000000
												CHANNELS 3 Xrotation Yrotation Zrotation
												End Site
												{
													OFFSET 0 0 0
												}
											}
										}
									}
								}
							}
						}
					}
				}
			}
		}
	}
}
MOTION
Frames: 11
Frame Time: 0.03333333
-15.957386 83.994774 -2.160995 0.000000 0.000000 0.000000 -7.381060 -46.318197 2.301169 -26.305338 8.471123 22.049384 47.816320 -5.169094 9.936386 -20.705488 -10.611203 -24.897674 -5.616161 0.334468 -0.461495 0.000000 0.000000 0.000000 -9.094560 -41.937969 3.038935 -32.143601 -2.144875 -33.959557 52.926023 -6.427917 -10.300193 -6.485869 -6.384079 26.194631 -4.111573 1.193767 0.614871 0.000000 0.000000 0.000000 -6.543635 -43.590103 3.196455 10.406916 7.436305 -1.756566 2.331772 0.554399 -2.318870 0.483900 -1.500573 0.861853 0.000000 0.000000 0.000000 2.717064 0.402128 -1.982984 0.420805 13.440799 1.862870 11.118020 17.903140 0.094129 0.000000 0.000000 0.000000 3.223067 0.302016 -2.290503 1.995629 -2.352383 -12.933057 -2.141998 -3.257596 0.030193 -68.487700 -0.565366 -39.980642 178.597617 -75.632160 -179.760593 0.000000 0.000000 0.000000 3.759263 0.468263 -2.102917 3.314509 10.964798 -12.804989 -1.481580 0.624696 1.676884 -65.981205 20.041913 88.149274 -22.638437 85.655435 20.191245 0.000000 0.000000 0.000000 
-17.468313 84.307449 -2.565121 0.000000 0.000000 0.000000 -7.962483 -48.048154 2.103009 -25.502267 6.917110 22.148352 48.248552 -4.302661 10.462231 -17.811914 -9.652925 -23.995155 -6.274349 0.557800 -2.283745 0.000000 0.000000 0.000000 -9.795796 -42.907907 2.865998 -31.743246 -2.834470 -33.946692 53.648486 -7.056754 -10.056269 -9.342550 -6.085179 24.892749 -2.577409 1.279764 1.449282 0.000000 0.000000 0.000000 -7.231865 -44.637062 3.110536 10.448899 7.116660 -1.906503 2.344021 0.065522 -2.413204 0.502557 -0.943981 1.047887 0.000000 0.000000 0.000000 2.651074 -0.151356 -2.051450 0.934446 13.594253 1.774514 11.384918 18.407886 -0.628696 0.000000 0.000000 0.000000 3.183854 -0.222960 -2.421059 2.093466 -0.984981 -12.680710 -1.958015 -3.294762 0.387749 -68.090409 -1.033238 -41.448716 178.718689 -74.676780 -179.472195 0.000000 0.000000 0.000000 3.644965 -0.039797 -2.171181 3.168939 10.109337 -13.546059 -0.956433 0.724592 1.284586 -66.970756 18.635083 88.441879 -26.133624 85.956442 23.514907 0.000000 0.000000 0.000000 
-18.849569 85.276604 -2.726612 0.000000 0.000000 0.000000 -8.402799 -48.785142 1.896031 -25.528565 5.501863 22.195842 49.056102 -4.093618 10.855985 -13.583201 -9.818637 -23.813241 -8.884398 0.709829 -3.476986 0.000000 0.000000 0.000000 -10.384111 -43.659857 2.653584 -31.095341 -4.058002 -33.632032 53.543144 -7.867761 -9.706098 -11.578608 -5.614357 23.514927 -1.529021 1.445925 1.821040 0.000000 0.000000 0.000000 -7.347950 -45.407009 3.122212 10.272635 6.791893 -1.889339 2.251241 -0.434495 -2.432918 0.487510 -0.462995 0.986025 0.000000 0.000000 0.000000 2.545109 -0.662001 -2.064283 1.354832 13.685398 1.866597 11.441614 18.982259 -1.499601 0.000000 0.000000 0.000000 3.096535 -0.713192 -2.474558 2.136878 -0.266944 -12.424283 -1.609238 -2.848738 0.434826 -66.566129 -1.519239 -43.100864 179.009969 -73.898945 -179.165342 0.000000 0.000000 0.000000 3.468712 -0.509693 -2.166473 3.017192 9.143187 -13.832904 -0.490839 0.738242 0.855895 -67.899074 17.022160 88.879264 -41.049802 87.300637 38.376080 0.000000 0.000000 0.000000 
-20.032700 86.590973 -2.715115 0.000000 0.000000 0.000000 -8.608402 -48.609367 1.783288 -26.103878 5.069252 21.902262 49.643277 -4.131122 10.758936 -9.864129 -10.820618 -23.638962 -12.732151 0.685528 -3.531406 0.000000 0.000000 0.000000 -10.742272 -44.262764 2.444309 -30.178081 -5.480674 -33.035672 52.298762 -8.520985 -9.518600 -12.491405 -4.870271 22.925236 -1.942488 1.584646 1.684377 0.000000 0.000000 0.000000 -7.006533 -45.904530 3.264758 9.951183 6.579578 -1.729418 2.087281 -0.799834 -2.395288 0.452439 -0.131429 0.836005 0.000000 0.000000 0.000000 2.450432 -0.977308 -2.050696 1.575589 13.676850 2.084288 11.167402 19.496039 -2.378178 0.000000 0.000000 0.000000 2.985284 -1.023592 -2.452941 2.109190 -0.223351 -12.293372 -1.199448 -2.128901 0.113310 -63.797983 -2.011846 -44.692667 179.400055 -73.398196 -178.906546 0.000000 0.000000 0.000000 3.306799 -0.809690 -2.117175 2.871028 8.174376 -13.518417 -0.173560 0.512505 0.501928 -67.865743 15.866693 89.240274 -115.295041 88.223477 112.721037 0.000000 0.000000 0.000000 
-21.010479 87.933266 -2.593849 0.000000 0.000000 0.000000 -8.589491 -47.904263 1.795396 -27.047599 5.724966 21.183140 50.000714 -4.272688 10.174434 -8.191241 -12.099011 -23.189105 -15.668182 0.364599 -2.483654 0.000000 0.000000 0.000000 -10.667275 -44.621841 2.373331 -28.902239 -6.988392 -31.992172 50.094267 -9.101481 -9.600525 -12.565403 -4.283307 22.690401 -2.865510 1.654175 1.241151 0.000000 0.000000 0.000000 -6.428332 -46.119001 3.468952 9.613203 6.526478 -1.503375 1.877131 -0.919969 -2.296718 0.342704 0.009276 0.676512 0.000000 0.000000 0.000000 2.386793 -1.014847 -2.016167 1.491396 13.530650 2.334675 10.638700 19.864859 -3.201619 0.000000 0.000000 0.000000 2.870844 -1.068370 -2.346193 2.032410 -0.739286 -12.323786 -0.920628 -1.325511 -0.216112 -59.901223 -2.281189 -45.915349 -179.975812 -73.192936 -178.485206 0.000000 0.000000 0.000000 3.206992 -0.853867 -2.008733 2.767469 7.380139 -12.626794 -0.028780 0.218843 0.310132 -66.491632 15.637050 89.361919 -163.354834 85.545087 161.040807 0.000000 0.000000 0.000000 
-21.851429 88.920486 -2.352684 0.000000 0.000000 0.000000 -8.337217 -47.279266 1.888881 -28.439494 7.221387 20.219049 50.482345 -4.455351 9.137465 -8.916000 -13.215086 -22.558276 -15.432459 -0.141654 -0.897889 0.000000 0.000000 0.000000 -10.196511 -44.819787 2.451377 -27.512875 -8.362884 -30.623556 47.657597 -9.707441 -9.811452 -12.779305 -4.128674 22.195562 -2.928053 1.669031 0.786567 0.000000 0.000000 0.000000 -5.812823 -46.230047 3.663806 9.347159 6.669448 -1.279962 1.665108 -0.759202 -2.120045 0.309112 -0.117881 0.549164 0.000000 0.000000 0.000000 2.327161 -0.758605 -1.920669 1.146792 13.279418 2.503616 9.938626 20.050068 -3.870519 0.000000 0.000000 0.000000 2.771831 -0.834653 -2.145532 1.932047 -1.509128 -12.376552 -0.754144 -0.649725 -0.398253 -55.639442 -2.121451 -46.680197 -179.368281 -73.331192 -178.102496 0.000000 0.000000 0.000000 3.204126 -0.607535 -1.842509 2.756453 6.979076 -11.305776 -0.149038 -0.155598 0.379162 -63.819560 16.674464 89.186384 -173.534302 82.176294 171.587657 0.000000 0.000000 0.000000 
-22.637617 89.354485 -2.058479 0.000000 0.000000 0.000000 -7.845097 -47.338737 2.021054 -30.381108 8.966330 19.399219 51.251042 -4.649840 7.889399 -10.998089 -14.120267 -21.860799 -12.449246 -0.596813 0.871249 0.000000 0.000000 0.000000 -9.542348 -44.901394 2.545605 -26.485817 -9.365928 -29.211029 46.299284 -10.410780 -9.947496 -13.502696 -4.432027 21.275406 -2.226505 1.624639 0.538589 0.000000 0.000000 0.000000 -5.290431 -46.288411 3.785372 9.219016 6.977496 -1.147804 1.504574 -0.357463 -1.860621 0.288075 -0.476959 0.708742 0.000000 0.000000 0.000000 2.327700 -0.284143 -1.742303 0.632239 13.005433 2.559245 9.199794 20.078079 -4.362481 0.000000 0.000000 0.000000 2.711996 -0.385728 -1.853582 1.835443 -2.148133 -12.406660 -0.950515 -0.297088 -0.425963 -51.814467 -1.289831 -47.047296 -178.986104 -73.512342 -177.922207 0.000000 0.000000 0.000000 3.237389 -0.154743 -1.605225 2.797707 7.025577 -9.811340 -0.448040 -0.426449 0.723324 -60.392369 18.742775 88.672507 -177.284103 79.107975 175.736027 0.000000 0.000000 0.000000 
-23.512371 89.287727 -1.784279 0.000000 0.000000 0.000000 -7.215639 -48.165070 2.112348 -32.160639 10.207935 18.660128 52.136251 -4.857391 6.853422 -13.249520 -14.695435 -21.048131 -9.416896 -0.930916 2.845009 0.000000 0.000000 0.000000 -8.874858 -45.004086 2.582821 -26.127767 -9.797413 -28.017801 46.637170 -11.012434 -9.968681 -14.280297 -4.981676 20.404900 -1.784485 1.544168 0.471714 0.000000 0.000000 0.000000 -4.883208 -46.407430 3.720456 9.251291 7.348449 -1.158754 1.397696 0.175948 -1.560517 0.425794 -1.022285 0.931948 0.000000 0.000000 0.000000 2.385360 0.274854 -1.488234 0.133429 12.805785 2.496057 8.643335 20.148488 -4.716857 0.000000 0.000000 0.000000 2.662740 0.143194 -1.532058 1.760890 -2.422368 -12.237101 -1.386460 -0.148941 -0.262436 -49.247877 0.293858 -47.292947 -178.864759 -73.477782 -177.947438 0.000000 0.000000 0.000000 3.234169 0.381118 -1.316823 2.874114 7.453395 -8.431723 -0.830214 -0.472213 1.251391 -56.954898 21.239182 87.869571 -178.876835 76.659263 177.686647 0.000000 0.000000 0.000000 
-24.513960 88.810165 -1.363113 0.000000 0.000000 0.000000 -6.440645 -49.402902 2.088347 -33.161436 10.532447 17.862664 52.716418 -4.690434 6.173488 -15.481235 -14.537983 -19.765140 -7.902073 -1.101738 4.253174 0.000000 0.000000 0.000000 -8.287477 -45.386549 2.456329 -26.501667 -9.568883 -27.238009 48.458792 -11.169123 -9.945331 -14.919392 -5.414595 20.219540 -1.883754 1.461455 0.541073 0.000000 0.000000 0.000000 -4.608216 -46.613032 3.422694 9.360467 7.709514 -1.290989 1.322397 0.702236 -1.274290 0.699375 -1.554265 1.154583 0.000000 0.000000 0.000000 2.471923 0.768613 -1.194512 -0.219232 12.740194 2.395875 8.330989 20.337930 -4.922773 0.000000 0.000000 0.000000 2.620557 0.621147 -1.228846 1.726218 -2.144147 -11.731395 -1.950508 -0.280399 -0.351172 -48.332433 2.243797 -47.582386 -179.074337 -73.263485 -178.253608 0.000000 0.000000 0.000000 3.157174 0.851541 -1.041344 2.969721 8.124907 -7.399087 -1.193643 -0.319108 1.803232 -54.090764 23.520769 86.998155 -179.472947 74.784807 178.568288 0.000000 0.000000 0.000000 
-25.518791 88.071602 -1.028465 0.000000 0.000000 0.000000 -5.684019 -50.561626 1.878363 -33.531236 10.229347 17.240859 52.935199 -3.789882 5.714436 -17.854396 -13.470959 -17.786190 -7.263791 -1.026327 4.052806 0.000000 0.000000 0.000000 -7.711749 -46.134120 2.162199 -27.176479 -8.940219 -26.764219 50.921383 -10.862760 -9.999228 -15.680893 -5.653809 20.653553 -2.086970 1.405348 0.755683 0.000000 0.000000 0.000000 -4.366582 -46.934150 2.938703 9.510141 7.998720 -1.492065 1.253544 1.099639 -1.048685 0.856713 -1.799241 1.215978 0.000000 0.000000 0.000000 2.526235 1.085435 -0.934558 -0.403436 12.806855 2.375629 8.356579 20.649311 -5.014416 0.000000 0.000000 0.000000 2.594507 0.947685 -0.983295 1.733338 -1.368583 -10.869996 -2.343945 -0.484317 -0.761084 -48.992233 3.972238 -48.015673 -179.535675 -72.885905 -178.778385 0.000000 0.000000 0.000000 3.009644 1.141669 -0.830023 3.080185 8.877377 -6.771865 -1.339293 -0.010730 2.053898 -52.157544 25.009149 86.330203 -179.704067 73.216172 179.039926 0.000000 0.000000 0.000000 
-26.424971 87.281464 -0.666885 0.000000 0.000000 0.000000 -5.169462 -51.404369 1.420561 -33.507371 9.620531 17.016571 53.202461 -2.406690 5.504992 -19.992061 -11.794703 -15.849521 -5.684371 -0.647410 1.955754 0.000000 0.000000 0.000000 -7.141717 -47.240399 1.744934 -27.669928 -8.206858 -26.403083 53.131150 -10.395118 -10.137234 -16.658370 -5.833560 21.057852 -1.900041 1.422066 1.092118 0.000000 0.000000 0.000000 -4.067483 -47.394498 2.374594 9.658514 8.186148 -1.718308 1.158448 1.329799 -0.921006 1.046387 -1.603684 0.950352 0.000000 0.000000 0.000000 2.462260 1.186540 -0.763272 -0.370252 12.939809 2.468886 8.700049 21.115817 -5.036654 0.000000 0.000000 0.000000 2.549318 1.083955 -0.835536 1.760548 -0.287713 -9.639896 -2.339013 -0.746603 -1.106557 -50.893164 5.081702 -48.533162 179.776221 -72.626583 -179.492262 0.000000 0.000000 0.000000 2.837150 1.237586 -0.725740 3.217219 9.530863 -6.532705 -1.165807 0.283001 1.858107 -51.169219 25.632021 85.957774 -179.815084 71.827902 179.330250 0.000000 0.000000 0.000000 
